ModelForces
version=1
nRows=4
nColumns=157
inDegrees=no

This file contains the forces exerted on a model during a simulation.

A force is a generalized force, meaning that it can be either a force (N) or a torque (Nm).

Units are S.I. units (second, meters, Newtons, ...)
Angles are in degrees.

endheader
time	glut_med1_r	glut_med2_r	glut_med3_r	glut_min1_r	glut_min2_r	glut_min3_r	semimem_r	semiten_r	bifemlh_r	bifemsh_r	sar_r	add_long_r	add_brev_r	add_mag1_r	add_mag2_r	add_mag3_r	tfl_r	pect_r	grac_r	glut_max1_r	glut_max2_r	glut_max3_r	iliacus_r	psoas_r	quad_fem_r	gem_r	peri_r	rect_fem_r	vas_med_r	vas_int_r	vas_lat_r	med_gas_r	lat_gas_r	soleus_r	tib_post_r	flex_dig_r	flex_hal_r	tib_ant_r	per_brev_r	per_long_r	per_tert_r	ext_dig_r	ext_hal_r	glut_med1_l	glut_med2_l	glut_med3_l	glut_min1_l	glut_min2_l	glut_min3_l	semimem_l	semiten_l	bifemlh_l	bifemsh_l	sar_l	add_long_l	add_brev_l	add_mag1_l	add_mag2_l	add_mag3_l	tfl_l	pect_l	grac_l	glut_max1_l	glut_max2_l	glut_max3_l	iliacus_l	psoas_l	quad_fem_l	gem_l	peri_l	rect_fem_l	vas_med_l	vas_int_l	vas_lat_l	med_gas_l	lat_gas_l	soleus_l	tib_post_l	flex_dig_l	flex_hal_l	tib_ant_l	per_brev_l	per_long_l	per_tert_l	ext_dig_l	ext_hal_l	ercspn_r	ercspn_l	intobl_r	intobl_l	extobl_r	extobl_l	femur_lat_meniscii_r.femur_lat_r.force.X	femur_lat_meniscii_r.femur_lat_r.force.Y	femur_lat_meniscii_r.femur_lat_r.force.Z	femur_lat_meniscii_r.femur_lat_r.torque.X	femur_lat_meniscii_r.femur_lat_r.torque.Y	femur_lat_meniscii_r.femur_lat_r.torque.Z	femur_lat_meniscii_r.meniscus_lat_r.force.X	femur_lat_meniscii_r.meniscus_lat_r.force.Y	femur_lat_meniscii_r.meniscus_lat_r.force.Z	femur_lat_meniscii_r.meniscus_lat_r.torque.X	femur_lat_meniscii_r.meniscus_lat_r.torque.Y	femur_lat_meniscii_r.meniscus_lat_r.torque.Z	femur_med_meniscii_r.femur_med_r.force.X	femur_med_meniscii_r.femur_med_r.force.Y	femur_med_meniscii_r.femur_med_r.force.Z	femur_med_meniscii_r.femur_med_r.torque.X	femur_med_meniscii_r.femur_med_r.torque.Y	femur_med_meniscii_r.femur_med_r.torque.Z	femur_med_meniscii_r.meniscus_med_r.force.X	femur_med_meniscii_r.meniscus_med_r.force.Y	femur_med_meniscii_r.meniscus_med_r.force.Z	femur_med_meniscii_r.meniscus_med_r.torque.X	femur_med_meniscii_r.meniscus_med_r.torque.Y	femur_med_meniscii_r.meniscus_med_r.torque.Z	femur_med_tibia_r.tibia_upper_r.force.X	femur_med_tibia_r.tibia_upper_r.force.Y	femur_med_tibia_r.tibia_upper_r.force.Z	femur_med_tibia_r.tibia_upper_r.torque.X	femur_med_tibia_r.tibia_upper_r.torque.Y	femur_med_tibia_r.tibia_upper_r.torque.Z	femur_med_tibia_r.femur_med_r.force.X	femur_med_tibia_r.femur_med_r.force.Y	femur_med_tibia_r.femur_med_r.force.Z	femur_med_tibia_r.femur_med_r.torque.X	femur_med_tibia_r.femur_med_r.torque.Y	femur_med_tibia_r.femur_med_r.torque.Z	femur_lat_tibia_r.tibia_upper_r.force.X	femur_lat_tibia_r.tibia_upper_r.force.Y	femur_lat_tibia_r.tibia_upper_r.force.Z	femur_lat_tibia_r.tibia_upper_r.torque.X	femur_lat_tibia_r.tibia_upper_r.torque.Y	femur_lat_tibia_r.tibia_upper_r.torque.Z	femur_lat_tibia_r.femur_lat_r.force.X	femur_lat_tibia_r.femur_lat_r.force.Y	femur_lat_tibia_r.femur_lat_r.force.Z	femur_lat_tibia_r.femur_lat_r.torque.X	femur_lat_tibia_r.femur_lat_r.torque.Y	femur_lat_tibia_r.femur_lat_r.torque.Z	aACL_R	pACL_R	aPCL_R	pPCL_R	aMCL_R	mMCL_R	pMCL_R	aLCL_R	mLCL_R	pLCL_R	ground_prescribedForce_fx	ground_prescribedForce_fy	ground_prescribedForce_fz	ground_prescribedForce_px	ground_prescribedForce_py	ground_prescribedForce_pz
      0.49413205	      7.59995492	      5.70158254	      6.10354557	      2.67503437	      3.19635944	      3.21469448	      8.65794603	      4.10370269	      7.81788093	      7.30625787	      1.54345320	      5.64919360	      4.16590558	      2.93724666	      2.46949335	      4.01585111	      3.83586093	      2.25235440	      1.56805768	      3.67917479	      5.59121648	      4.17418581	     22.71256676	     13.03990153	      3.64911111	      2.86481684	      4.13208026	     10.73054223	      6.58825420	      6.71516035	      8.38560523	      4.37978905	      2.18194713	      8.56503062	     11.49239803	      2.74250958	      2.17767499	     15.32441007	      3.64770705	      7.11449404	     10.62705608	      8.07492870	      2.24344388	      7.59995492	      5.70158254	      6.10354557	      2.67503437	      3.19635944	      3.21469448	      8.82104648	      4.11109705	      7.74594496	      7.26069067	      1.52890247	      5.64919360	      4.16590558	      2.93724666	      2.46949335	      4.01585111	      4.11457960	      2.25235440	      1.56825968	      3.67917479	      5.59121648	      4.17418581	     22.71256676	     13.03990153	      3.64911111	      2.86481684	      4.13208026	     10.75302762	      6.63532711	      7.61219906	      8.18489672	     14.14417401	      6.56761901	     31.40566459	     42.48403452	      2.76865339	      2.94444416	      8.51639453	      4.37279560	     12.54099246	      2.01721710	      5.32333421	      1.69101730	     25.15833910	     25.15833910	      9.05964547	      9.05964547	     26.85818553	     26.85818553	     34.77878579	     81.49256188	     13.75263527	     -7.71576341	      0.83800497	     14.56817997	    -34.77878579	    -81.49256188	    -13.75263527	      2.75077272	     -0.98384346	     -1.14812658	     31.78118121	     81.44036554	      9.72203750	     -2.25699450	     -0.77709701	     13.80439957	    -31.78118121	    -81.44036554	     -9.72203750	     -1.15735867	      0.64516478	     -1.53775424	      0.00000000	      0.00000000	      0.00000000	      0.00000000	      0.00000000	      0.00000000	      0.00000000	      0.00000000	      0.00000000	      0.00000000	      0.00000000	      0.00000000	      0.00000000	      0.00000000	      0.00000000	      0.00000000	      0.00000000	      0.00000000	      0.00000000	      0.00000000	      0.00000000	      0.00000000	      0.00000000	      0.00000000	     30.96648268	     55.59521851	      0.00000000	      0.00000000	      0.00000000	      1.87873980	     13.04160635	     -0.19259935	      0.00000000	      0.44511161	    110.00000000	      0.00000000	      0.00000000	      0.03000000	     -0.03000000	      0.00000000
      0.49697807	      7.59799522	      5.70023262	      6.10208256	      2.67442789	      3.19570338	      3.21386723	      8.64141407	      4.09613079	      7.80900129	      7.26011742	      1.52031064	      5.64784050	      4.16496965	      2.93655633	      2.46889912	      4.01478071	      3.83325091	      2.25184051	      1.55905669	      3.67830441	      5.58988974	      4.17317716	     22.71011895	     13.03714858	      3.64826579	      2.86442110	      4.13050899	     10.71405038	      6.55403642	      6.68138772	      8.35196953	      4.38838853	      2.18955051	      8.58969589	     11.45758039	      2.76092586	      2.14317702	     15.34689319	      3.67349243	      7.16996789	     10.65703603	      8.09556416	      2.26326820	      7.59799522	      5.70023262	      6.10208256	      2.67442789	      3.19570338	      3.21386723	      8.81819266	      4.11004712	      7.74357019	      7.25900770	      1.52855742	      5.64784050	      4.16496965	      2.93655633	      2.46889912	      4.01478071	      4.11391756	      2.25184051	      1.56789961	      3.67830441	      5.58988974	      4.17317716	     22.71011895	     13.03714858	      3.64826579	      2.86442110	      4.13050899	     10.74979547	      6.63372023	      7.61032001	      8.18288654	     14.13721716	      6.56438369	     31.39375013	     42.47936574	      2.76620772	      2.94271355	      8.51396223	      4.37133871	     12.53749258	      2.01679005	      5.32232393	      1.69072955	     25.15262224	     25.15262224	      9.05740358	      9.05740358	     26.85617174	     26.85617174	     33.97094193	     79.80131437	     13.50369531	     -7.57052853	      0.81846686	     14.22942971	    -33.97094193	    -79.80131437	    -13.50369531	      2.69448041	     -0.96092760	     -1.12098069	     31.18114467	     80.04500033	      9.59512497	     -2.23509549	     -0.76293469	     13.54634633	    -31.18114467	    -80.04500033	     -9.59512497	     -1.13608556	      0.63349010	     -1.51120591	      0.00000000	      0.00000000	      0.00000000	      0.00000000	      0.00000000	      0.00000000	      0.00000000	      0.00000000	      0.00000000	      0.00000000	      0.00000000	      0.00000000	      0.00000000	      0.00000000	      0.00000000	      0.00000000	      0.00000000	      0.00000000	      0.00000000	      0.00000000	      0.00000000	      0.00000000	      0.00000000	      0.00000000	     31.24722790	     55.87798732	      0.00000000	      0.00000000	      0.00000000	      2.64608975	     13.78915925	      0.91036433	      0.00000000	      1.54870571	    110.00000000	      0.00000000	      0.00000000	      0.03000000	     -0.03000000	      0.00000000
      0.49982409	      7.59610611	      5.69893132	      6.10067224	      2.67384324	      3.19507094	      3.21306979	      8.64774376	      4.10101214	      7.81976680	      7.30350429	      1.54168659	      5.64653612	      4.16406742	      2.93589085	      2.46832629	      4.01374886	      3.83563545	      2.25134511	      1.56650904	      3.67746538	      5.58861078	      4.17220483	     22.70775931	     13.03449483	      3.64745091	      2.86403963	      4.12899370	     10.72401094	      6.58273338	      6.71046401	      8.38421229	      4.43065894	      2.21330807	      8.65052578	     11.43681547	      2.77550900	      2.10860124	     15.35864880	      3.69651328	      7.22345951	     10.66976053	      8.13842622	      2.28208664	      7.59610611	      5.69893132	      6.10067224	      2.67384324	      3.19507094	      3.21306979	      8.81544146	      4.10903501	      7.74128089	      7.25738533	      1.52822479	      5.64653612	      4.16406742	      2.93589085	      2.46832629	      4.01374886	      4.11327938	      2.25134511	      1.56755250	      3.67746538	      5.58861078	      4.17220483	     22.70775931	     13.03449483	      3.64745091	      2.86403963	      4.12899370	     10.74667968	      6.63217123	      7.60850865	      8.18094877	     14.13049914	      6.56125942	     31.38226044	     42.47486418	      2.76378963	      2.94101297	      8.51161754	      4.36993415	     12.53411598	      2.01637839	      5.32138754	      1.69046341	     25.14711118	     25.14711118	      9.05524243	      9.05524243	     26.85423048	     26.85423048	     34.67931584	     81.29989239	     13.74173068	     -7.70626359	      0.83559439	     14.52643784	    -34.67931584	    -81.29989239	    -13.74173068	      2.74451422	     -0.98096151	     -1.14468782	     31.85339598	     81.66791594	      9.76533517	     -2.27004118	     -0.77905280	     13.83659429	    -31.85339598	    -81.66791594	     -9.76533517	     -1.16024339	      0.64687523	     -1.54199537	      0.00000000	      0.00000000	      0.00000000	      0.00000000	      0.00000000	      0.00000000	      0.00000000	      0.00000000	      0.00000000	      0.00000000	      0.00000000	      0.00000000	      0.00000000	      0.00000000	      0.00000000	      0.00000000	      0.00000000	      0.00000000	      0.00000000	      0.00000000	      0.00000000	      0.00000000	      0.00000000	      0.00000000	     31.01842167	     55.67263909	      0.00000000	      0.00000000	      0.00000000	      1.91048634	     13.06852566	     -0.08834530	      0.00000000	      0.55649273	    110.00000000	      0.00000000	      0.00000000	      0.03000000	     -0.03000000	      0.00000000
      0.50267010	      7.59428505	      5.69767687	      6.09931270	      2.67327964	      3.19446127	      3.21230107	      8.63288286	      4.09395334	      7.81280304	      7.26325381	      1.51974839	      5.64527871	      4.16319765	      2.93524933	      2.46777409	      4.01275419	      3.83344764	      2.25086756	      1.55825286	      3.67665656	      5.58737787	      4.17126752	     22.70548465	     13.03193669	      3.64666537	      2.86367190	      4.12753242	     10.70945256	      6.55085768	      6.67957029	      8.35444778	      4.44622045	      2.22558432	      8.68879977	     11.42554410	      2.78548313	      2.07316591	     15.37805995	      3.71470672	      7.27169116	     10.69283245	      8.20857051	      2.30148561	      7.59428505	      5.69767687	      6.09931270	      2.67327964	      3.19446127	      3.21230107	      8.81278921	      4.10805935	      7.73907400	      7.25582136	      1.52790413	      5.64527871	      4.16319765	      2.93524933	      2.46777409	      4.01275419	      4.11266421	      2.25086756	      1.56721789	      3.67665656	      5.58737787	      4.17126752	     22.70548465	     13.03193669	      3.64666537	      2.86367190	      4.12753242	     10.74367606	      6.63067802	      7.60676254	      8.17908081	     14.12401192	      6.55824246	     31.37118048	     42.47052387	      2.76139808	      2.93934142	      8.50935730	      4.36858004	     12.53085836	      2.01598156	      5.32052208	      1.69021795	     25.14179850	     25.14179850	      9.05315912	      9.05315912	     26.85235913	     26.85235913	     33.97886129	     79.74351082	     13.51995411	     -7.57575673	      0.81851953	     14.23286253	    -33.97886129	    -79.74351082	    -13.51995411	      2.69301815	     -0.96094408	     -1.12132903	     31.32108513	     80.44378363	      9.65368892	     -2.25068350	     -0.76653292	     13.60786313	    -31.32108513	    -80.44378363	     -9.65368892	     -1.14163824	      0.63657207	     -1.51862535	      0.00000000	      0.00000000	      0.00000000	      0.00000000	      0.00000000	      0.00000000	      0.00000000	      0.00000000	      0.00000000	      0.00000000	      0.00000000	      0.00000000	      0.00000000	      0.00000000	      0.00000000	      0.00000000	      0.00000000	      0.00000000	      0.00000000	      0.00000000	      0.00000000	      0.00000000	      0.00000000	      0.00000000	     31.27093941	     55.93017922	      0.00000000	      0.00000000	      0.00000000	      2.58944515	     13.72906782	      0.90603755	      0.00000000	      1.55153579	    110.00000000	      0.00000000	      0.00000000	      0.03000000	     -0.03000000	      0.00000000
